<?xml version="1.0" encoding="UTF-8"?>
<svg width="192" height="192" viewBox="0 0 192 192" fill="none" xmlns="http://www.w3.org/2000/svg">
  <rect width="192" height="192" rx="32" fill="#000000"/>
  <path d="M96 36C62.8 36 36 62.8 36 96C36 129.2 62.8 156 96 156C129.2 156 156 129.2 156 96C156 62.8 129.2 36 96 36ZM96 60C105.1 60 112.4 67.3 112.4 76.4C112.4 85.5 105.1 92.8 96 92.8C86.9 92.8 79.6 85.5 79.6 76.4C79.6 67.3 86.9 60 96 60ZM96 138.4C83.6 138.4 72.5 131.7 66 121.6C66.2 108.8 91.6 101.6 96 101.6C100.4 101.6 125.8 108.8 126 121.6C119.5 131.7 108.4 138.4 96 138.4Z" fill="white"/>
</svg>
